<svg xmlns="http://www.w3.org/2000/svg" xmlns:xlink="http://www.w3.org/1999/xlink" xml:lang="en" height="554.9pt" width="596.0240000000001pt" viewBox="-117.24400000000006 -24.9 596.0240000000001 554.9"><path d="M 0.0,-0.0 L -2.645237086158283e-15,14.4 L -5.290474172316566e-15,28.8" style="stroke:black;fill:none;stroke-width:2.0;stroke-dasharray:-;stroke-linecap:round;stroke-linejoin:round;" /><path d="M -5.290474172316566e-15,28.8 L -8.266365894244634e-15,45.0 L -1.1242257616172701e-14,61.2" style="stroke:black;fill:none;stroke-width:2.0;stroke-dasharray:-;stroke-linecap:round;stroke-linejoin:round;" /><path d="M -1.1242257616172701e-14,61.2 L -1.421814933810077e-14,77.4 L -1.719404106002884e-14,93.60000000000001" style="stroke:black;fill:none;stroke-width:2.0;stroke-dasharray:-;stroke-linecap:round;stroke-linejoin:round;" /><path d="M -1.719404106002884e-14,93.60000000000001 L -2.0169932781956905e-14,109.80000000000001 L -2.3145824503884975e-14,126.0" style="stroke:black;fill:none;stroke-width:2.0;stroke-dasharray:-;stroke-linecap:round;stroke-linejoin:round;" /><path d="M -2.3145824503884975e-14,126.0 L 71.99999999999997,126.0 L 143.99999999999997,126.0" style="stroke:#e11d48;fill:none;stroke-width:2.0;stroke-dasharray:-;stroke-linecap:round;stroke-linejoin:round;" /><path d="M 143.99999999999997,126.0 L 216.0,126.0 L 288.0,126.0" style="stroke:#e11d48;fill:none;stroke-width:2.0;stroke-dasharray:-;stroke-linecap:round;stroke-linejoin:round;" /><path d="M -2.3145824503884975e-14,126.0 L -2.6121716225813044e-14,142.20000000000002 L -2.909760794774111e-14,158.4" style="stroke:black;fill:none;stroke-width:2.0;stroke-dasharray:-;stroke-linecap:round;stroke-linejoin:round;" /><path d="M -2.909760794774111e-14,158.4 L -3.207349966966918e-14,174.60000000000002 L -3.5049391391597245e-14,190.8" style="stroke:black;fill:none;stroke-width:2.0;stroke-dasharray:-;stroke-linecap:round;stroke-linejoin:round;" /><path d="M -3.5049391391597245e-14,190.8 L 71.99999999999997,190.8 L 143.99999999999997,190.8" style="stroke:#059669;fill:none;stroke-width:2.0;stroke-dasharray:-;stroke-linecap:round;stroke-linejoin:round;" /><path d="M 143.99999999999997,190.8 L 215.99999999999997,190.8 L 287.99999999999994,190.8" style="stroke:#059669;fill:none;stroke-width:2.0;stroke-dasharray:-;stroke-linecap:round;stroke-linejoin:round;" /><path d="M -3.5049391391597245e-14,190.8 L -3.8025283113525314e-14,207.00000000000003 L -4.100117483545338e-14,223.20000000000005" style="stroke:black;fill:none;stroke-width:2.0;stroke-dasharray:-;stroke-linecap:round;stroke-linejoin:round;" /><path d="M -4.100117483545338e-14,223.20000000000005 L -4.397706655738145e-14,239.40000000000003 L -4.695295827930952e-14,255.60000000000005" style="stroke:black;fill:none;stroke-width:2.0;stroke-dasharray:-;stroke-linecap:round;stroke-linejoin:round;" /><path d="M -4.695295827930952e-14,255.60000000000005 L 71.99999999999996,255.60000000000005 L 143.99999999999994,255.60000000000005" style="stroke:#6b7280;fill:none;stroke-width:2.0;stroke-dasharray:-;stroke-linecap:round;stroke-linejoin:round;" /><path d="M 143.99999999999994,255.60000000000005 L 215.99999999999994,255.60000000000005 L 287.99999999999994,255.60000000000005" style="stroke:#6b7280;fill:none;stroke-width:2.0;stroke-dasharray:-;stroke-linecap:round;stroke-linejoin:round;" /><path d="M -4.695295827930952e-14,255.60000000000005 L -4.9928850001237584e-14,271.80000000000007 L -5.2904741723165653e-14,288.00000000000006" style="stroke:black;fill:none;stroke-width:2.0;stroke-dasharray:-;stroke-linecap:round;stroke-linejoin:round;" /><path d="M -5.2904741723165653e-14,288.00000000000006 L 71.99999999999994,288.00000000000006 L 143.99999999999994,288.00000000000006" style="stroke:#6b7280;fill:none;stroke-width:2.0;stroke-dasharray:-;stroke-linecap:round;stroke-linejoin:round;" /><path d="M 143.99999999999994,288.00000000000006 L 215.99999999999994,288.00000000000006 L 287.99999999999994,288.00000000000006" style="stroke:#6b7280;fill:none;stroke-width:2.0;stroke-dasharray:-;stroke-linecap:round;stroke-linejoin:round;" /><path d="M -5.2904741723165653e-14,288.00000000000006 L -5.621128808086351e-14,306.00000000000006 L -5.951783443856136e-14,324.00000000000006" style="stroke:black;fill:none;stroke-width:2.0;stroke-dasharray:-;stroke-linecap:round;stroke-linejoin:round;" /><path d="M -5.951783443856136e-14,324.00000000000006 L -6.150176225318007e-14,334.80000000000007 L -6.348569006779878e-14,345.6" style="stroke:black;fill:none;stroke-width:2.0;stroke-dasharray:-;stroke-linecap:round;stroke-linejoin:round;" /><path d="M -6.348569006779878e-14,345.6 L 21.599999999999934,345.6 L 43.19999999999993,345.6" style="stroke:#e11d48;fill:none;stroke-width:2.0;stroke-dasharray:-;stroke-linecap:round;stroke-linejoin:round;" /><path d="M -6.348569006779878e-14,345.6 L -6.54696178824175e-14,356.4000000000001 L -6.74535456970362e-14,367.20000000000005" style="stroke:black;fill:none;stroke-width:2.0;stroke-dasharray:-;stroke-linecap:round;stroke-linejoin:round;" /><path d="M -6.74535456970362e-14,367.20000000000005 L 21.59999999999993,367.20000000000005 L 43.19999999999993,367.20000000000005" style="stroke:#334155;fill:none;stroke-width:2.0;stroke-dasharray:-;stroke-linecap:round;stroke-linejoin:round;" /><path d="M -6.74535456970362e-14,367.20000000000005 L -6.943747351165492e-14,378.00000000000006 L -7.142140132627362e-14,388.8" style="stroke:black;fill:none;stroke-width:2.0;stroke-dasharray:-;stroke-linecap:round;stroke-linejoin:round;" /><path d="M -7.142140132627362e-14,388.8 L 21.599999999999927,388.8 L 43.199999999999925,388.8" style="stroke:#2563eb;fill:none;stroke-width:2.0;stroke-dasharray:-;stroke-linecap:round;stroke-linejoin:round;" /><path d="M -7.142140132627362e-14,388.8 L -7.340532914089234e-14,399.6 L -7.538925695551106e-14,410.40000000000003" style="stroke:black;fill:none;stroke-width:2.0;stroke-dasharray:-;stroke-linecap:round;stroke-linejoin:round;" /><path d="M -7.538925695551106e-14,410.40000000000003 L 21.599999999999923,410.40000000000003 L 43.199999999999925,410.40000000000003" style="stroke:#7c3aed;fill:none;stroke-width:2.0;stroke-dasharray:-;stroke-linecap:round;stroke-linejoin:round;" /><path d="M -7.538925695551106e-14,410.40000000000003 L -7.737318477012976e-14,421.20000000000005 L -7.935711258474848e-14,432.0" style="stroke:black;fill:none;stroke-width:2.0;stroke-dasharray:-;stroke-linecap:round;stroke-linejoin:round;" /><path d="M -7.935711258474848e-14,432.0 L 21.59999999999992,432.0 L 43.19999999999992,432.0" style="stroke:#0d9488;fill:none;stroke-width:2.0;stroke-dasharray:-;stroke-linecap:round;stroke-linejoin:round;" /><path d="M -7.935711258474848e-14,432.0 L -8.134104039936718e-14,442.8 L -8.33249682139859e-14,453.59999999999997" style="stroke:black;fill:none;stroke-width:2.0;stroke-dasharray:-;stroke-linecap:round;stroke-linejoin:round;" /><path d="M -8.33249682139859e-14,453.59999999999997 L 21.599999999999916,453.59999999999997 L 43.19999999999992,453.59999999999997" style="stroke:#ea580c;fill:none;stroke-width:2.0;stroke-dasharray:-;stroke-linecap:round;stroke-linejoin:round;" /><path d="M -8.33249682139859e-14,453.59999999999997 L -8.530889602860462e-14,464.40000000000003 L -8.729282384322332e-14,475.2" style="stroke:black;fill:none;stroke-width:2.0;stroke-dasharray:-;stroke-linecap:round;stroke-linejoin:round;" /><path d="M -8.729282384322332e-14,475.2 L 21.599999999999913,475.2 L 43.19999999999991,475.2" style="stroke:#6b7280;fill:none;stroke-width:2.0;stroke-dasharray:-;stroke-linecap:round;stroke-linejoin:round;" /><path d="M -8.729282384322332e-14,475.2 L -8.927675165784204e-14,486.0 L -9.126067947246075e-14,496.79999999999995" style="stroke:black;fill:none;stroke-width:2.0;stroke-dasharray:-;stroke-linecap:round;stroke-linejoin:round;" /><path d="M -9.126067947246075e-14,496.79999999999995 L 21.59999999999991,496.79999999999995 L 43.19999999999991,496.79999999999995" style="stroke:#ca8a04;fill:none;stroke-width:2.0;stroke-dasharray:-;stroke-linecap:round;stroke-linejoin:round;" /><path d="M -9.126067947246075e-14,496.79999999999995 L -9.324460728707946e-14,507.59999999999997 L -9.522853510169817e-14,518.4" style="stroke:black;fill:none;stroke-width:2.0;stroke-dasharray:-;stroke-linecap:round;stroke-linejoin:round;" /><path d="M -9.522853510169817e-14,518.4 L 21.599999999999902,518.4 L 43.1999999999999,518.4" style="stroke:#6b7280;fill:none;stroke-width:2.0;stroke-dasharray:-;stroke-linecap:round;stroke-linejoin:round;" /><circle cx="0.0" cy="-0.0" r="2.6999999999999997" style="stroke:black;fill:black;stroke-width:2.0;stroke-dasharray:-;" /><text x="0.0" y="-20.3" dominant-baseline="ideographic" fill="black" font-size="14.0" font-family="sans" text-anchor="middle"><tspan x="0.0" dy="14.0">BOARD: ARDUINO UNO</tspan></text><circle cx="-5.290474172316566e-15" cy="28.8" r="2.6999999999999997" style="stroke:black;fill:white;stroke-width:2.0;stroke-dasharray:-;" /><text x="6.2999999999999945" y="14.8" dominant-baseline="central" fill="black" font-size="14.0" font-family="sans" text-anchor="start"><tspan x="6.2999999999999945" dy="14.0">PARTS: C1:Arduino(Arduino Uno) | C2:Display(TM1637 4-Digit 7-Segment)</tspan></text><circle cx="-1.1242257616172701e-14" cy="61.2" r="2.6999999999999997" style="stroke:black;fill:white;stroke-width:2.0;stroke-dasharray:-;" /><text x="6.299999999999988" y="47.2" dominant-baseline="central" fill="black" font-size="14.0" font-family="sans" text-anchor="start"><tspan x="6.299999999999988" dy="14.0">WIRING MAP</tspan></text><circle cx="-1.719404106002884e-14" cy="93.60000000000001" r="2.6999999999999997" style="stroke:black;fill:white;stroke-width:2.0;stroke-dasharray:-;" /><text x="6.299999999999983" y="79.60000000000001" dominant-baseline="central" fill="black" font-size="14.0" font-family="sans" text-anchor="start"><tspan x="6.299999999999983" dy="14.0">[POWER]</tspan></text><circle cx="-2.3145824503884975e-14" cy="126.0" r="2.6999999999999997" style="stroke:#e11d48;fill:#e11d48;stroke-width:2.0;stroke-dasharray:-;" /><text x="-6.300000000000023" y="112.0" dominant-baseline="central" fill="#e11d48" font-size="14.0" font-family="sans" text-anchor="end"><tspan x="-6.300000000000023" dy="14.0">01  Arduino 5V</tspan></text><circle cx="143.99999999999997" cy="126.0" r="2.6999999999999997" style="stroke:#e11d48;fill:white;stroke-width:2.0;stroke-dasharray:-;" /><text x="143.99999999999997" y="105.7" dominant-baseline="ideographic" fill="#e11d48" font-size="14.0" font-family="sans" text-anchor="middle"><tspan x="143.99999999999997" dy="14.0">Power</tspan></text><circle cx="288.0" cy="126.0" r="2.6999999999999997" style="stroke:#e11d48;fill:#e11d48;stroke-width:2.0;stroke-dasharray:-;" /><text x="294.3" y="112.0" dominant-baseline="central" fill="#e11d48" font-size="14.0" font-family="sans" text-anchor="start"><tspan x="294.3" dy="14.0">TM1637 VCC</tspan></text><circle cx="-2.909760794774111e-14" cy="158.4" r="2.6999999999999997" style="stroke:black;fill:white;stroke-width:2.0;stroke-dasharray:-;" /><text x="6.2999999999999705" y="144.4" dominant-baseline="central" fill="black" font-size="14.0" font-family="sans" text-anchor="start"><tspan x="6.2999999999999705" dy="14.0">[DIGITAL]</tspan></text><circle cx="-3.5049391391597245e-14" cy="190.8" r="2.6999999999999997" style="stroke:#059669;fill:#059669;stroke-width:2.0;stroke-dasharray:-;" /><text x="-6.3000000000000345" y="176.8" dominant-baseline="central" fill="#059669" font-size="14.0" font-family="sans" text-anchor="end"><tspan x="-6.3000000000000345" dy="14.0">02  Arduino Pin 3</tspan></text><circle cx="143.99999999999997" cy="190.8" r="2.6999999999999997" style="stroke:#059669;fill:white;stroke-width:2.0;stroke-dasharray:-;" /><text x="143.99999999999997" y="170.50000000000003" dominant-baseline="ideographic" fill="#059669" font-size="14.0" font-family="sans" text-anchor="middle"><tspan x="143.99999999999997" dy="14.0">Data</tspan></text><circle cx="287.99999999999994" cy="190.8" r="2.6999999999999997" style="stroke:#059669;fill:#059669;stroke-width:2.0;stroke-dasharray:-;" /><text x="294.29999999999995" y="176.8" dominant-baseline="central" fill="#059669" font-size="14.0" font-family="sans" text-anchor="start"><tspan x="294.29999999999995" dy="14.0">TM1637 DIO</tspan></text><circle cx="-4.100117483545338e-14" cy="223.20000000000005" r="2.6999999999999997" style="stroke:black;fill:white;stroke-width:2.0;stroke-dasharray:-;" /><text x="6.299999999999959" y="209.20000000000005" dominant-baseline="central" fill="black" font-size="14.0" font-family="sans" text-anchor="start"><tspan x="6.299999999999959" dy="14.0">[OTHER]</tspan></text><circle cx="-4.695295827930952e-14" cy="255.60000000000005" r="2.6999999999999997" style="stroke:#6b7280;fill:#6b7280;stroke-width:2.0;stroke-dasharray:-;" /><text x="-6.300000000000047" y="241.60000000000005" dominant-baseline="central" fill="#6b7280" font-size="14.0" font-family="sans" text-anchor="end"><tspan x="-6.300000000000047" dy="14.0">03  Arduino GND</tspan></text><circle cx="143.99999999999994" cy="255.60000000000005" r="2.6999999999999997" style="stroke:#6b7280;fill:white;stroke-width:2.0;stroke-dasharray:-;" /><text x="143.99999999999994" y="235.30000000000007" dominant-baseline="ideographic" fill="#6b7280" font-size="14.0" font-family="sans" text-anchor="middle"><tspan x="143.99999999999994" dy="14.0">Ground</tspan></text><circle cx="287.99999999999994" cy="255.60000000000005" r="2.6999999999999997" style="stroke:#6b7280;fill:#6b7280;stroke-width:2.0;stroke-dasharray:-;" /><text x="294.29999999999995" y="241.60000000000005" dominant-baseline="central" fill="#6b7280" font-size="14.0" font-family="sans" text-anchor="start"><tspan x="294.29999999999995" dy="14.0">TM1637 GND</tspan></text><circle cx="-5.2904741723165653e-14" cy="288.00000000000006" r="2.6999999999999997" style="stroke:#6b7280;fill:#6b7280;stroke-width:2.0;stroke-dasharray:-;" /><text x="-6.300000000000052" y="274.00000000000006" dominant-baseline="central" fill="#6b7280" font-size="14.0" font-family="sans" text-anchor="end"><tspan x="-6.300000000000052" dy="14.0">04  Arduino Pin 2</tspan></text><circle cx="143.99999999999994" cy="288.00000000000006" r="2.6999999999999997" style="stroke:#6b7280;fill:white;stroke-width:2.0;stroke-dasharray:-;" /><text x="143.99999999999994" y="267.70000000000005" dominant-baseline="ideographic" fill="#6b7280" font-size="14.0" font-family="sans" text-anchor="middle"><tspan x="143.99999999999994" dy="14.0">Clock</tspan></text><circle cx="287.99999999999994" cy="288.00000000000006" r="2.6999999999999997" style="stroke:#6b7280;fill:#6b7280;stroke-width:2.0;stroke-dasharray:-;" /><text x="294.29999999999995" y="274.00000000000006" dominant-baseline="central" fill="#6b7280" font-size="14.0" font-family="sans" text-anchor="start"><tspan x="294.29999999999995" dy="14.0">TM1637 CLK</tspan></text><circle cx="-5.951783443856136e-14" cy="324.00000000000006" r="2.6999999999999997" style="stroke:black;fill:white;stroke-width:2.0;stroke-dasharray:-;" /><text x="6.299999999999939" y="310.00000000000006" dominant-baseline="central" fill="black" font-size="14.0" font-family="sans" text-anchor="start"><tspan x="6.299999999999939" dy="14.0">LEGEND</tspan></text><circle cx="-6.348569006779878e-14" cy="345.6" r="2.6999999999999997" style="stroke:#e11d48;fill:#e11d48;stroke-width:2.0;stroke-dasharray:-;" /><circle cx="43.19999999999993" cy="345.6" r="2.6999999999999997" style="stroke:#e11d48;fill:white;stroke-width:2.0;stroke-dasharray:-;" /><text x="49.499999999999936" y="331.6" dominant-baseline="central" fill="#e11d48" font-size="14.0" font-family="sans" text-anchor="start"><tspan x="49.499999999999936" dy="14.0">POWER</tspan></text><circle cx="-6.74535456970362e-14" cy="367.20000000000005" r="2.6999999999999997" style="stroke:#334155;fill:#334155;stroke-width:2.0;stroke-dasharray:-;" /><circle cx="43.19999999999993" cy="367.20000000000005" r="2.6999999999999997" style="stroke:#334155;fill:white;stroke-width:2.0;stroke-dasharray:-;" /><text x="49.499999999999936" y="353.20000000000005" dominant-baseline="central" fill="#334155" font-size="14.0" font-family="sans" text-anchor="start"><tspan x="49.499999999999936" dy="14.0">GND</tspan></text><circle cx="-7.142140132627362e-14" cy="388.8" r="2.6999999999999997" style="stroke:#2563eb;fill:#2563eb;stroke-width:2.0;stroke-dasharray:-;" /><circle cx="43.199999999999925" cy="388.8" r="2.6999999999999997" style="stroke:#2563eb;fill:white;stroke-width:2.0;stroke-dasharray:-;" /><text x="49.49999999999993" y="374.8" dominant-baseline="central" fill="#2563eb" font-size="14.0" font-family="sans" text-anchor="start"><tspan x="49.49999999999993" dy="14.0">I2C</tspan></text><circle cx="-7.538925695551106e-14" cy="410.40000000000003" r="2.6999999999999997" style="stroke:#7c3aed;fill:#7c3aed;stroke-width:2.0;stroke-dasharray:-;" /><circle cx="43.199999999999925" cy="410.40000000000003" r="2.6999999999999997" style="stroke:#7c3aed;fill:white;stroke-width:2.0;stroke-dasharray:-;" /><text x="49.49999999999993" y="396.40000000000003" dominant-baseline="central" fill="#7c3aed" font-size="14.0" font-family="sans" text-anchor="start"><tspan x="49.49999999999993" dy="14.0">SPI</tspan></text><circle cx="-7.935711258474848e-14" cy="432.0" r="2.6999999999999997" style="stroke:#0d9488;fill:#0d9488;stroke-width:2.0;stroke-dasharray:-;" /><circle cx="43.19999999999992" cy="432.0" r="2.6999999999999997" style="stroke:#0d9488;fill:white;stroke-width:2.0;stroke-dasharray:-;" /><text x="49.49999999999992" y="418.0" dominant-baseline="central" fill="#0d9488" font-size="14.0" font-family="sans" text-anchor="start"><tspan x="49.49999999999992" dy="14.0">UART</tspan></text><circle cx="-8.33249682139859e-14" cy="453.59999999999997" r="2.6999999999999997" style="stroke:#ea580c;fill:#ea580c;stroke-width:2.0;stroke-dasharray:-;" /><circle cx="43.19999999999992" cy="453.59999999999997" r="2.6999999999999997" style="stroke:#ea580c;fill:white;stroke-width:2.0;stroke-dasharray:-;" /><text x="49.49999999999992" y="439.59999999999997" dominant-baseline="central" fill="#ea580c" font-size="14.0" font-family="sans" text-anchor="start"><tspan x="49.49999999999992" dy="14.0">PWM</tspan></text><circle cx="-8.729282384322332e-14" cy="475.2" r="2.6999999999999997" style="stroke:#6b7280;fill:#6b7280;stroke-width:2.0;stroke-dasharray:-;" /><circle cx="43.19999999999991" cy="475.2" r="2.6999999999999997" style="stroke:#6b7280;fill:white;stroke-width:2.0;stroke-dasharray:-;" /><text x="49.499999999999915" y="461.2" dominant-baseline="central" fill="#6b7280" font-size="14.0" font-family="sans" text-anchor="start"><tspan x="49.499999999999915" dy="14.0">DIGITAL</tspan></text><circle cx="-9.126067947246075e-14" cy="496.79999999999995" r="2.6999999999999997" style="stroke:#ca8a04;fill:#ca8a04;stroke-width:2.0;stroke-dasharray:-;" /><circle cx="43.19999999999991" cy="496.79999999999995" r="2.6999999999999997" style="stroke:#ca8a04;fill:white;stroke-width:2.0;stroke-dasharray:-;" /><text x="49.499999999999915" y="482.79999999999995" dominant-baseline="central" fill="#ca8a04" font-size="14.0" font-family="sans" text-anchor="start"><tspan x="49.499999999999915" dy="14.0">ANALOG</tspan></text><circle cx="-9.522853510169817e-14" cy="518.4" r="2.6999999999999997" style="stroke:#6b7280;fill:#6b7280;stroke-width:2.0;stroke-dasharray:-;" /><circle cx="43.1999999999999" cy="518.4" r="2.6999999999999997" style="stroke:#6b7280;fill:white;stroke-width:2.0;stroke-dasharray:-;" /><text x="49.4999999999999" y="504.4" dominant-baseline="central" fill="#6b7280" font-size="14.0" font-family="sans" text-anchor="start"><tspan x="49.4999999999999" dy="14.0">OTHER</tspan></text></svg>