<svg xmlns="http://www.w3.org/2000/svg" xmlns:xlink="http://www.w3.org/1999/xlink" xml:lang="en" height="290.14pt" width="234.956pt" viewBox="-78.748 -132.89999999999998 234.956 290.14"><circle cx="3.3065463576978533e-15" cy="-54.0" r="18.0" style="stroke:black;fill:none;stroke-width:2.0;stroke-dasharray:-;" /><path d="M 0.0,-0.0 L 2.204364238465236e-15,-36.0 L 2.204364238465236e-15,-36.0 M 4.408728476930472e-15,-72.0 L 4.408728476930472e-15,-72.0 L 6.613092715395707e-15,-108.0" style="stroke:black;fill:none;stroke-width:2.0;stroke-dasharray:-;stroke-linecap:round;stroke-linejoin:round;" /><path d="M 3.600000000000003,-45.0 L -3.599999999999997,-45.0" style="stroke:black;fill:none;stroke-width:2.0;stroke-dasharray:-;stroke-linecap:round;stroke-linejoin:round;" /><path d="M 3.637200993467639e-15,-59.4 L 4.078073841160686e-15,-66.60000000000001" style="stroke:black;fill:none;stroke-width:2.0;stroke-dasharray:-;stroke-linecap:round;stroke-linejoin:round;" /><path d="M 3.600000000000004,-63.0 L -3.599999999999996,-63.0" style="stroke:black;fill:none;stroke-width:2.0;stroke-dasharray:-;stroke-linecap:round;stroke-linejoin:round;" /><path d="M 6.613092715395707e-15,-108.0 L 21.60000000000001,-108.0 L 43.2,-108.0" style="stroke:black;fill:none;stroke-width:2.0;stroke-dasharray:-;stroke-linecap:round;stroke-linejoin:round;" /><path d="M 43.2,-108.0 L 43.199999999999996,-72.0 L 52.199999999999996,-69.0 L 34.199999999999996,-63.0 L 52.199999999999996,-57.00000000000001 L 34.199999999999996,-51.0 L 52.19999999999999,-45.0 L 34.199999999999996,-39.00000000000001 L 43.19999999999999,-36.0 L 43.19999999999999,-0.0" style="stroke:black;fill:none;stroke-width:2.0;stroke-dasharray:-;stroke-linecap:round;stroke-linejoin:round;" /><path d="M 43.19999999999999,-0.0 L 43.19999999999999,10.799999999999999 L 43.19999999999999,21.599999999999998" style="stroke:black;fill:none;stroke-width:2.0;stroke-dasharray:-;stroke-linecap:round;stroke-linejoin:round;" /><path d="M 43.19999999999999,21.599999999999998 L 43.19999999999999,36.0 L 34.19999999999999,36.0 L 52.19999999999999,36.0 M 36.89999999999999,40.32000000000001 L 49.49999999999999,40.32000000000001 M 41.39999999999999,44.64 L 44.99999999999999,44.64" style="stroke:black;fill:none;stroke-width:2.0;stroke-dasharray:-;stroke-linecap:round;stroke-linejoin:round;" /><path d="M 43.19999999999999,21.599999999999998 L 43.19999999999999,10.799999999999999 L 43.19999999999999,-0.0" style="stroke:black;fill:none;stroke-width:2.0;stroke-dasharray:-;stroke-linecap:round;stroke-linejoin:round;" /><path d="M 43.19999999999999,-0.0 L 64.8,-0.0 L 86.39999999999998,-0.0" style="stroke:black;fill:none;stroke-width:2.0;stroke-dasharray:-;stroke-linecap:round;stroke-linejoin:round;" /><path d="M 86.39999999999998,-0.0 L 86.39999999999998,36.0 L 95.39999999999998,39.0 L 77.39999999999998,45.0 L 95.39999999999996,50.99999999999999 L 77.39999999999996,57.0 L 95.39999999999996,63.0 L 77.39999999999996,69.0 L 86.39999999999996,72.0 L 86.39999999999996,108.0" style="stroke:black;fill:none;stroke-width:2.0;stroke-dasharray:-;stroke-linecap:round;stroke-linejoin:round;" /><path d="M 86.39999999999996,108.0 L 86.39999999999996,118.8 L 86.39999999999996,129.6" style="stroke:black;fill:none;stroke-width:2.0;stroke-dasharray:-;stroke-linecap:round;stroke-linejoin:round;" /><path d="M 86.39999999999996,129.6 L 86.39999999999996,144.0 L 77.39999999999996,144.0 L 95.39999999999996,144.0 M 80.09999999999997,148.32 L 92.69999999999996,148.32 M 84.59999999999997,152.64000000000001 L 88.19999999999996,152.64000000000001" style="stroke:black;fill:none;stroke-width:2.0;stroke-dasharray:-;stroke-linecap:round;stroke-linejoin:round;" /><path d="M 86.39999999999996,129.6 L 86.39999999999996,118.80000000000001 L 86.39999999999996,108.0" style="stroke:black;fill:none;stroke-width:2.0;stroke-dasharray:-;stroke-linecap:round;stroke-linejoin:round;" /><path d="M 86.39999999999996,108.0 L 107.99999999999997,108.0 L 129.59999999999997,108.0" style="stroke:black;fill:none;stroke-width:2.0;stroke-dasharray:-;stroke-linecap:round;stroke-linejoin:round;" /><text x="-21.599999999999994" y="-68.0" dominant-baseline="central" fill="black" font-size="14.0" font-family="sans" text-anchor="end"><tspan x="-21.599999999999994" dy="14.0">5V</tspan></text><text x="30.599999999999994" y="-68.0" dominant-baseline="central" fill="black" font-size="14.0" font-family="sans" text-anchor="end"><tspan x="30.599999999999994" dy="14.0">Display 4 dígitos</tspan></text><text x="73.79999999999998" y="40.0" dominant-baseline="central" fill="black" font-size="14.0" font-family="sans" text-anchor="end"><tspan x="73.79999999999998" dy="14.0">resistor</tspan></text><circle cx="43.2" cy="-108.0" r="2.6999999999999997" style="stroke:black;fill:black;stroke-width:2.0;stroke-dasharray:-;" /><text x="43.2" y="-128.3" dominant-baseline="ideographic" fill="black" font-size="14.0" font-family="sans" text-anchor="middle"><tspan x="43.2" dy="14.0">arduino uno</tspan></text><circle cx="129.59999999999997" cy="108.0" r="2.6999999999999997" style="stroke:black;fill:black;stroke-width:2.0;stroke-dasharray:-;" /><text x="129.59999999999997" y="100.3" dominant-baseline="hanging" fill="black" font-size="14.0" font-family="sans" text-anchor="middle"><tspan x="129.59999999999997" dy="14.0">Nets: 1</tspan></text></svg>