<svg xmlns="http://www.w3.org/2000/svg" xmlns:xlink="http://www.w3.org/1999/xlink" xml:lang="en" height="425.2999999999999pt" width="479.4320000000001pt" viewBox="-81.29200000000002 -24.9 479.4320000000001 425.2999999999999"><path d="M 0.0,-0.0 L -2.645237086158283e-15,14.4 L -5.290474172316566e-15,28.8" style="stroke:black;fill:none;stroke-width:2.0;stroke-dasharray:-;stroke-linecap:round;stroke-linejoin:round;" /><path d="M -5.290474172316566e-15,28.8 L -8.266365894244634e-15,45.0 L -1.1242257616172701e-14,61.2" style="stroke:black;fill:none;stroke-width:2.0;stroke-dasharray:-;stroke-linecap:round;stroke-linejoin:round;" /><path d="M -1.1242257616172701e-14,61.2 L -1.421814933810077e-14,77.4 L -1.719404106002884e-14,93.60000000000001" style="stroke:black;fill:none;stroke-width:2.0;stroke-dasharray:-;stroke-linecap:round;stroke-linejoin:round;" /><path d="M -1.719404106002884e-14,93.60000000000001 L -2.0169932781956905e-14,109.80000000000001 L -2.3145824503884975e-14,126.0" style="stroke:black;fill:none;stroke-width:2.0;stroke-dasharray:-;stroke-linecap:round;stroke-linejoin:round;" /><path d="M -2.3145824503884975e-14,126.0 L 71.99999999999997,126.0 L 143.99999999999997,126.0" style="stroke:#059669;fill:none;stroke-width:2.0;stroke-dasharray:-;stroke-linecap:round;stroke-linejoin:round;" /><path d="M 143.99999999999997,126.0 L 216.0,126.0 L 288.0,126.0" style="stroke:#059669;fill:none;stroke-width:2.0;stroke-dasharray:-;stroke-linecap:round;stroke-linejoin:round;" /><path d="M -2.3145824503884975e-14,126.0 L -2.6121716225813044e-14,142.20000000000002 L -2.909760794774111e-14,158.4" style="stroke:black;fill:none;stroke-width:2.0;stroke-dasharray:-;stroke-linecap:round;stroke-linejoin:round;" /><path d="M -2.909760794774111e-14,158.4 L 71.99999999999997,158.4 L 143.99999999999997,158.4" style="stroke:#059669;fill:none;stroke-width:2.0;stroke-dasharray:-;stroke-linecap:round;stroke-linejoin:round;" /><path d="M 143.99999999999997,158.4 L 215.99999999999997,158.4 L 287.99999999999994,158.4" style="stroke:#059669;fill:none;stroke-width:2.0;stroke-dasharray:-;stroke-linecap:round;stroke-linejoin:round;" /><path d="M -2.909760794774111e-14,158.4 L -3.240415430543896e-14,176.4 L -3.571070066313682e-14,194.4" style="stroke:black;fill:none;stroke-width:2.0;stroke-dasharray:-;stroke-linecap:round;stroke-linejoin:round;" /><path d="M -3.571070066313682e-14,194.4 L -3.7694628477755534e-14,205.20000000000002 L -3.9678556292374245e-14,216.0" style="stroke:black;fill:none;stroke-width:2.0;stroke-dasharray:-;stroke-linecap:round;stroke-linejoin:round;" /><path d="M -3.9678556292374245e-14,216.0 L 21.59999999999996,216.0 L 43.19999999999996,216.0" style="stroke:#e11d48;fill:none;stroke-width:2.0;stroke-dasharray:-;stroke-linecap:round;stroke-linejoin:round;" /><path d="M -3.9678556292374245e-14,216.0 L -4.1662484106992955e-14,226.79999999999998 L -4.364641192161167e-14,237.6" style="stroke:black;fill:none;stroke-width:2.0;stroke-dasharray:-;stroke-linecap:round;stroke-linejoin:round;" /><path d="M -4.364641192161167e-14,237.6 L 21.599999999999955,237.6 L 43.19999999999996,237.6" style="stroke:#334155;fill:none;stroke-width:2.0;stroke-dasharray:-;stroke-linecap:round;stroke-linejoin:round;" /><path d="M -4.364641192161167e-14,237.6 L -4.563033973623038e-14,248.39999999999998 L -4.7614267550849094e-14,259.2" style="stroke:black;fill:none;stroke-width:2.0;stroke-dasharray:-;stroke-linecap:round;stroke-linejoin:round;" /><path d="M -4.7614267550849094e-14,259.2 L 21.59999999999995,259.2 L 43.19999999999995,259.2" style="stroke:#2563eb;fill:none;stroke-width:2.0;stroke-dasharray:-;stroke-linecap:round;stroke-linejoin:round;" /><path d="M -4.7614267550849094e-14,259.2 L -4.9598195365467804e-14,269.99999999999994 L -5.1582123180086515e-14,280.79999999999995" style="stroke:black;fill:none;stroke-width:2.0;stroke-dasharray:-;stroke-linecap:round;stroke-linejoin:round;" /><path d="M -5.1582123180086515e-14,280.79999999999995 L 21.599999999999948,280.79999999999995 L 43.19999999999995,280.79999999999995" style="stroke:#7c3aed;fill:none;stroke-width:2.0;stroke-dasharray:-;stroke-linecap:round;stroke-linejoin:round;" /><path d="M -5.1582123180086515e-14,280.79999999999995 L -5.356605099470523e-14,291.59999999999997 L -5.554997880932394e-14,302.4" style="stroke:black;fill:none;stroke-width:2.0;stroke-dasharray:-;stroke-linecap:round;stroke-linejoin:round;" /><path d="M -5.554997880932394e-14,302.4 L 21.599999999999945,302.4 L 43.199999999999946,302.4" style="stroke:#0d9488;fill:none;stroke-width:2.0;stroke-dasharray:-;stroke-linecap:round;stroke-linejoin:round;" /><path d="M -5.554997880932394e-14,302.4 L -5.753390662394265e-14,313.2 L -5.951783443856137e-14,323.99999999999994" style="stroke:black;fill:none;stroke-width:2.0;stroke-dasharray:-;stroke-linecap:round;stroke-linejoin:round;" /><path d="M -5.951783443856137e-14,323.99999999999994 L 21.599999999999937,323.99999999999994 L 43.199999999999946,323.99999999999994" style="stroke:#ea580c;fill:none;stroke-width:2.0;stroke-dasharray:-;stroke-linecap:round;stroke-linejoin:round;" /><path d="M -5.951783443856137e-14,323.99999999999994 L -6.150176225318007e-14,334.79999999999995 L -6.348569006779879e-14,345.5999999999999" style="stroke:black;fill:none;stroke-width:2.0;stroke-dasharray:-;stroke-linecap:round;stroke-linejoin:round;" /><path d="M -6.348569006779879e-14,345.5999999999999 L 21.599999999999934,345.5999999999999 L 43.19999999999993,345.5999999999999" style="stroke:#6b7280;fill:none;stroke-width:2.0;stroke-dasharray:-;stroke-linecap:round;stroke-linejoin:round;" /><path d="M -6.348569006779879e-14,345.5999999999999 L -6.546961788241751e-14,356.4 L -6.745354569703621e-14,367.19999999999993" style="stroke:black;fill:none;stroke-width:2.0;stroke-dasharray:-;stroke-linecap:round;stroke-linejoin:round;" /><path d="M -6.745354569703621e-14,367.19999999999993 L 21.59999999999993,367.19999999999993 L 43.19999999999993,367.19999999999993" style="stroke:#ca8a04;fill:none;stroke-width:2.0;stroke-dasharray:-;stroke-linecap:round;stroke-linejoin:round;" /><path d="M -6.745354569703621e-14,367.19999999999993 L -6.943747351165493e-14,377.99999999999994 L -7.142140132627363e-14,388.7999999999999" style="stroke:black;fill:none;stroke-width:2.0;stroke-dasharray:-;stroke-linecap:round;stroke-linejoin:round;" /><path d="M -7.142140132627363e-14,388.7999999999999 L 21.599999999999927,388.7999999999999 L 43.199999999999925,388.7999999999999" style="stroke:#6b7280;fill:none;stroke-width:2.0;stroke-dasharray:-;stroke-linecap:round;stroke-linejoin:round;" /><circle cx="0.0" cy="-0.0" r="2.6999999999999997" style="stroke:black;fill:black;stroke-width:2.0;stroke-dasharray:-;" /><text x="0.0" y="-20.3" dominant-baseline="ideographic" fill="black" font-size="14.0" font-family="sans" text-anchor="middle"><tspan x="0.0" dy="14.0">BOARD: ARDUINO UNO</tspan></text><circle cx="-5.290474172316566e-15" cy="28.8" r="2.6999999999999997" style="stroke:black;fill:white;stroke-width:2.0;stroke-dasharray:-;" /><text x="6.2999999999999945" y="14.8" dominant-baseline="central" fill="black" font-size="14.0" font-family="sans" text-anchor="start"><tspan x="6.2999999999999945" dy="14.0">PARTS: TM1637:display(TM1637) | A1:pin(CLK) | A2:pin(DIO)</tspan></text><circle cx="-1.1242257616172701e-14" cy="61.2" r="2.6999999999999997" style="stroke:black;fill:white;stroke-width:2.0;stroke-dasharray:-;" /><text x="6.299999999999988" y="47.2" dominant-baseline="central" fill="black" font-size="14.0" font-family="sans" text-anchor="start"><tspan x="6.299999999999988" dy="14.0">WIRING MAP</tspan></text><circle cx="-1.719404106002884e-14" cy="93.60000000000001" r="2.6999999999999997" style="stroke:black;fill:white;stroke-width:2.0;stroke-dasharray:-;" /><text x="6.299999999999983" y="79.60000000000001" dominant-baseline="central" fill="black" font-size="14.0" font-family="sans" text-anchor="start"><tspan x="6.299999999999983" dy="14.0">[DIGITAL]</tspan></text><circle cx="-2.3145824503884975e-14" cy="126.0" r="2.6999999999999997" style="stroke:#059669;fill:#059669;stroke-width:2.0;stroke-dasharray:-;" /><text x="-6.300000000000023" y="112.0" dominant-baseline="central" fill="#059669" font-size="14.0" font-family="sans" text-anchor="end"><tspan x="-6.300000000000023" dy="14.0">01  A1</tspan></text><circle cx="143.99999999999997" cy="126.0" r="2.6999999999999997" style="stroke:#059669;fill:white;stroke-width:2.0;stroke-dasharray:-;" /><text x="143.99999999999997" y="105.7" dominant-baseline="ideographic" fill="#059669" font-size="14.0" font-family="sans" text-anchor="middle"><tspan x="143.99999999999997" dy="14.0">CLK</tspan></text><circle cx="288.0" cy="126.0" r="2.6999999999999997" style="stroke:#059669;fill:#059669;stroke-width:2.0;stroke-dasharray:-;" /><text x="294.3" y="112.0" dominant-baseline="central" fill="#059669" font-size="14.0" font-family="sans" text-anchor="start"><tspan x="294.3" dy="14.0">D2</tspan></text><circle cx="-2.909760794774111e-14" cy="158.4" r="2.6999999999999997" style="stroke:#059669;fill:#059669;stroke-width:2.0;stroke-dasharray:-;" /><text x="-6.300000000000028" y="144.4" dominant-baseline="central" fill="#059669" font-size="14.0" font-family="sans" text-anchor="end"><tspan x="-6.300000000000028" dy="14.0">02  A2</tspan></text><circle cx="143.99999999999997" cy="158.4" r="2.6999999999999997" style="stroke:#059669;fill:white;stroke-width:2.0;stroke-dasharray:-;" /><text x="143.99999999999997" y="138.10000000000002" dominant-baseline="ideographic" fill="#059669" font-size="14.0" font-family="sans" text-anchor="middle"><tspan x="143.99999999999997" dy="14.0">DIO</tspan></text><circle cx="287.99999999999994" cy="158.4" r="2.6999999999999997" style="stroke:#059669;fill:#059669;stroke-width:2.0;stroke-dasharray:-;" /><text x="294.29999999999995" y="144.4" dominant-baseline="central" fill="#059669" font-size="14.0" font-family="sans" text-anchor="start"><tspan x="294.29999999999995" dy="14.0">D3</tspan></text><circle cx="-3.571070066313682e-14" cy="194.4" r="2.6999999999999997" style="stroke:black;fill:white;stroke-width:2.0;stroke-dasharray:-;" /><text x="6.299999999999963" y="180.4" dominant-baseline="central" fill="black" font-size="14.0" font-family="sans" text-anchor="start"><tspan x="6.299999999999963" dy="14.0">LEGEND</tspan></text><circle cx="-3.9678556292374245e-14" cy="216.0" r="2.6999999999999997" style="stroke:#e11d48;fill:#e11d48;stroke-width:2.0;stroke-dasharray:-;" /><circle cx="43.19999999999996" cy="216.0" r="2.6999999999999997" style="stroke:#e11d48;fill:white;stroke-width:2.0;stroke-dasharray:-;" /><text x="49.49999999999996" y="202.0" dominant-baseline="central" fill="#e11d48" font-size="14.0" font-family="sans" text-anchor="start"><tspan x="49.49999999999996" dy="14.0">POWER</tspan></text><circle cx="-4.364641192161167e-14" cy="237.6" r="2.6999999999999997" style="stroke:#334155;fill:#334155;stroke-width:2.0;stroke-dasharray:-;" /><circle cx="43.19999999999996" cy="237.6" r="2.6999999999999997" style="stroke:#334155;fill:white;stroke-width:2.0;stroke-dasharray:-;" /><text x="49.49999999999996" y="223.6" dominant-baseline="central" fill="#334155" font-size="14.0" font-family="sans" text-anchor="start"><tspan x="49.49999999999996" dy="14.0">GND</tspan></text><circle cx="-4.7614267550849094e-14" cy="259.2" r="2.6999999999999997" style="stroke:#2563eb;fill:#2563eb;stroke-width:2.0;stroke-dasharray:-;" /><circle cx="43.19999999999995" cy="259.2" r="2.6999999999999997" style="stroke:#2563eb;fill:white;stroke-width:2.0;stroke-dasharray:-;" /><text x="49.49999999999995" y="245.2" dominant-baseline="central" fill="#2563eb" font-size="14.0" font-family="sans" text-anchor="start"><tspan x="49.49999999999995" dy="14.0">I2C</tspan></text><circle cx="-5.1582123180086515e-14" cy="280.79999999999995" r="2.6999999999999997" style="stroke:#7c3aed;fill:#7c3aed;stroke-width:2.0;stroke-dasharray:-;" /><circle cx="43.19999999999995" cy="280.79999999999995" r="2.6999999999999997" style="stroke:#7c3aed;fill:white;stroke-width:2.0;stroke-dasharray:-;" /><text x="49.49999999999995" y="266.79999999999995" dominant-baseline="central" fill="#7c3aed" font-size="14.0" font-family="sans" text-anchor="start"><tspan x="49.49999999999995" dy="14.0">SPI</tspan></text><circle cx="-5.554997880932394e-14" cy="302.4" r="2.6999999999999997" style="stroke:#0d9488;fill:#0d9488;stroke-width:2.0;stroke-dasharray:-;" /><circle cx="43.199999999999946" cy="302.4" r="2.6999999999999997" style="stroke:#0d9488;fill:white;stroke-width:2.0;stroke-dasharray:-;" /><text x="49.49999999999994" y="288.4" dominant-baseline="central" fill="#0d9488" font-size="14.0" font-family="sans" text-anchor="start"><tspan x="49.49999999999994" dy="14.0">UART</tspan></text><circle cx="-5.951783443856137e-14" cy="323.99999999999994" r="2.6999999999999997" style="stroke:#ea580c;fill:#ea580c;stroke-width:2.0;stroke-dasharray:-;" /><circle cx="43.199999999999946" cy="323.99999999999994" r="2.6999999999999997" style="stroke:#ea580c;fill:white;stroke-width:2.0;stroke-dasharray:-;" /><text x="49.49999999999994" y="309.99999999999994" dominant-baseline="central" fill="#ea580c" font-size="14.0" font-family="sans" text-anchor="start"><tspan x="49.49999999999994" dy="14.0">PWM</tspan></text><circle cx="-6.348569006779879e-14" cy="345.5999999999999" r="2.6999999999999997" style="stroke:#6b7280;fill:#6b7280;stroke-width:2.0;stroke-dasharray:-;" /><circle cx="43.19999999999993" cy="345.5999999999999" r="2.6999999999999997" style="stroke:#6b7280;fill:white;stroke-width:2.0;stroke-dasharray:-;" /><text x="49.499999999999936" y="331.5999999999999" dominant-baseline="central" fill="#6b7280" font-size="14.0" font-family="sans" text-anchor="start"><tspan x="49.499999999999936" dy="14.0">DIGITAL</tspan></text><circle cx="-6.745354569703621e-14" cy="367.19999999999993" r="2.6999999999999997" style="stroke:#ca8a04;fill:#ca8a04;stroke-width:2.0;stroke-dasharray:-;" /><circle cx="43.19999999999993" cy="367.19999999999993" r="2.6999999999999997" style="stroke:#ca8a04;fill:white;stroke-width:2.0;stroke-dasharray:-;" /><text x="49.499999999999936" y="353.19999999999993" dominant-baseline="central" fill="#ca8a04" font-size="14.0" font-family="sans" text-anchor="start"><tspan x="49.499999999999936" dy="14.0">ANALOG</tspan></text><circle cx="-7.142140132627363e-14" cy="388.7999999999999" r="2.6999999999999997" style="stroke:#6b7280;fill:#6b7280;stroke-width:2.0;stroke-dasharray:-;" /><circle cx="43.199999999999925" cy="388.7999999999999" r="2.6999999999999997" style="stroke:#6b7280;fill:white;stroke-width:2.0;stroke-dasharray:-;" /><text x="49.49999999999993" y="374.7999999999999" dominant-baseline="central" fill="#6b7280" font-size="14.0" font-family="sans" text-anchor="start"><tspan x="49.49999999999993" dy="14.0">OTHER</tspan></text></svg>