<svg xmlns="http://www.w3.org/2000/svg" xmlns:xlink="http://www.w3.org/1999/xlink" xml:lang="en" height="506.14pt" width="305.14399999999995pt" viewBox="-62.53600000000002 -132.89999999999998 305.14399999999995 506.14"><circle cx="3.3065463576978533e-15" cy="-54.0" r="18.0" style="stroke:black;fill:none;stroke-width:2.0;stroke-dasharray:-;" /><polygon points="138.59999999999994,155.70000000000002 129.59999999999994,168.29999999999998 120.59999999999995,155.70000000000002 " style="stroke:black;fill:none;stroke-width:2.0;stroke-dasharray:-;stroke-linecap:round;stroke-linejoin:round;" /><path d="M 0.0,-0.0 L 2.204364238465236e-15,-36.0 L 2.204364238465236e-15,-36.0 M 4.408728476930472e-15,-72.0 L 4.408728476930472e-15,-72.0 L 6.613092715395707e-15,-108.0" style="stroke:black;fill:none;stroke-width:2.0;stroke-dasharray:-;stroke-linecap:round;stroke-linejoin:round;" /><path d="M 3.600000000000003,-45.0 L -3.599999999999997,-45.0" style="stroke:black;fill:none;stroke-width:2.0;stroke-dasharray:-;stroke-linecap:round;stroke-linejoin:round;" /><path d="M 3.637200993467639e-15,-59.4 L 4.078073841160686e-15,-66.60000000000001" style="stroke:black;fill:none;stroke-width:2.0;stroke-dasharray:-;stroke-linecap:round;stroke-linejoin:round;" /><path d="M 3.600000000000004,-63.0 L -3.599999999999996,-63.0" style="stroke:black;fill:none;stroke-width:2.0;stroke-dasharray:-;stroke-linecap:round;stroke-linejoin:round;" /><path d="M 6.613092715395707e-15,-108.0 L 21.60000000000001,-108.0 L 43.2,-108.0" style="stroke:black;fill:none;stroke-width:2.0;stroke-dasharray:-;stroke-linecap:round;stroke-linejoin:round;" /><path d="M 43.2,-108.0 L 43.199999999999996,-72.0 L 52.199999999999996,-69.0 L 34.199999999999996,-63.0 L 52.199999999999996,-57.00000000000001 L 34.199999999999996,-51.0 L 52.19999999999999,-45.0 L 34.199999999999996,-39.00000000000001 L 43.19999999999999,-36.0 L 43.19999999999999,-0.0" style="stroke:black;fill:none;stroke-width:2.0;stroke-dasharray:-;stroke-linecap:round;stroke-linejoin:round;" /><path d="M 43.19999999999999,-0.0 L 43.19999999999999,10.799999999999999 L 43.19999999999999,21.599999999999998" style="stroke:black;fill:none;stroke-width:2.0;stroke-dasharray:-;stroke-linecap:round;stroke-linejoin:round;" /><path d="M 43.19999999999999,21.599999999999998 L 43.19999999999999,36.0 L 34.19999999999999,36.0 L 52.19999999999999,36.0 M 36.89999999999999,40.32000000000001 L 49.49999999999999,40.32000000000001 M 41.39999999999999,44.64 L 44.99999999999999,44.64" style="stroke:black;fill:none;stroke-width:2.0;stroke-dasharray:-;stroke-linecap:round;stroke-linejoin:round;" /><path d="M 43.19999999999999,21.599999999999998 L 43.19999999999999,10.799999999999999 L 43.19999999999999,-0.0" style="stroke:black;fill:none;stroke-width:2.0;stroke-dasharray:-;stroke-linecap:round;stroke-linejoin:round;" /><path d="M 43.19999999999999,-0.0 L 64.8,-0.0 L 86.39999999999998,-0.0" style="stroke:black;fill:none;stroke-width:2.0;stroke-dasharray:-;stroke-linecap:round;stroke-linejoin:round;" /><path d="M 86.39999999999998,-0.0 L 86.39999999999998,36.0 L 95.39999999999998,39.0 L 77.39999999999998,45.0 L 95.39999999999996,50.99999999999999 L 77.39999999999996,57.0 L 95.39999999999996,63.0 L 77.39999999999996,69.0 L 86.39999999999996,72.0 L 86.39999999999996,108.0" style="stroke:black;fill:none;stroke-width:2.0;stroke-dasharray:-;stroke-linecap:round;stroke-linejoin:round;" /><path d="M 86.39999999999996,108.0 L 86.39999999999996,118.8 L 86.39999999999996,129.6" style="stroke:black;fill:none;stroke-width:2.0;stroke-dasharray:-;stroke-linecap:round;stroke-linejoin:round;" /><path d="M 86.39999999999996,129.6 L 86.39999999999996,144.0 L 77.39999999999996,144.0 L 95.39999999999996,144.0 M 80.09999999999997,148.32 L 92.69999999999996,148.32 M 84.59999999999997,152.64000000000001 L 88.19999999999996,152.64000000000001" style="stroke:black;fill:none;stroke-width:2.0;stroke-dasharray:-;stroke-linecap:round;stroke-linejoin:round;" /><path d="M 86.39999999999996,129.6 L 86.39999999999996,118.80000000000001 L 86.39999999999996,108.0" style="stroke:black;fill:none;stroke-width:2.0;stroke-dasharray:-;stroke-linecap:round;stroke-linejoin:round;" /><path d="M 86.39999999999996,108.0 L 107.99999999999997,108.0 L 129.59999999999997,108.0" style="stroke:black;fill:none;stroke-width:2.0;stroke-dasharray:-;stroke-linecap:round;stroke-linejoin:round;" /><path d="M 129.59999999999997,108.0 L 129.59999999999994,155.70000000000002 M 138.59999999999994,168.29999999999998 L 120.59999999999994,168.29999999999998 M 129.59999999999994,168.29999999999998 L 129.59999999999994,216.0" style="stroke:black;fill:none;stroke-width:2.0;stroke-dasharray:-;stroke-linecap:round;stroke-linejoin:round;" /><path d="M 143.09999999999994,164.70000000000002 L 152.59864937670386,170.12779964383083" style="stroke:black;fill:none;stroke-width:2.0;stroke-dasharray:-;stroke-linecap:round;stroke-linejoin:round;" /><path d="M 157.11351371575105 172.70772212328635 L 151.16976923423618 172.62833989314925 L 154.02752951917154 167.62725939451235 Z" style="stroke:black;fill:black;stroke-linecap:butt;stroke-linejoin:miter;" /><path d="M 143.09999999999997,156.6 L 152.59864937670386,162.0277996438308" style="stroke:black;fill:none;stroke-width:2.0;stroke-dasharray:-;stroke-linecap:round;stroke-linejoin:round;" /><path d="M 157.11351371575105 164.60772212328635 L 151.16976923423618 164.52833989314925 L 154.02752951917154 159.52725939451236 Z" style="stroke:black;fill:black;stroke-linecap:butt;stroke-linejoin:miter;" /><path d="M 129.59999999999994,216.0 L 129.59999999999994,226.79999999999998 L 129.59999999999994,237.6" style="stroke:black;fill:none;stroke-width:2.0;stroke-dasharray:-;stroke-linecap:round;stroke-linejoin:round;" /><path d="M 129.59999999999994,237.6 L 129.59999999999994,252.0 L 120.59999999999994,252.0 L 138.59999999999994,252.0 M 123.29999999999994,256.32 L 135.89999999999992,256.32 M 127.79999999999994,260.64 L 131.39999999999992,260.64" style="stroke:black;fill:none;stroke-width:2.0;stroke-dasharray:-;stroke-linecap:round;stroke-linejoin:round;" /><path d="M 129.59999999999994,237.6 L 129.59999999999994,226.79999999999998 L 129.59999999999994,216.0" style="stroke:black;fill:none;stroke-width:2.0;stroke-dasharray:-;stroke-linecap:round;stroke-linejoin:round;" /><path d="M 129.59999999999994,216.0 L 151.19999999999993,216.0 L 172.79999999999993,216.0" style="stroke:black;fill:none;stroke-width:2.0;stroke-dasharray:-;stroke-linecap:round;stroke-linejoin:round;" /><path d="M 172.79999999999993,216.0 L 172.79999999999993,252.0 L 181.79999999999993,255.0 L 163.79999999999993,261.0 L 181.79999999999993,267.0 L 163.79999999999993,273.0 L 181.79999999999993,279.0 L 163.79999999999993,285.0 L 172.79999999999993,288.0 L 172.7999999999999,324.0" style="stroke:black;fill:none;stroke-width:2.0;stroke-dasharray:-;stroke-linecap:round;stroke-linejoin:round;" /><path d="M 172.7999999999999,324.0 L 172.7999999999999,334.8 L 172.7999999999999,345.59999999999997" style="stroke:black;fill:none;stroke-width:2.0;stroke-dasharray:-;stroke-linecap:round;stroke-linejoin:round;" /><path d="M 172.7999999999999,345.59999999999997 L 172.7999999999999,360.0 L 163.7999999999999,360.0 L 181.7999999999999,360.0 M 166.49999999999991,364.32 L 179.09999999999988,364.32 M 170.99999999999991,368.64 L 174.59999999999988,368.64" style="stroke:black;fill:none;stroke-width:2.0;stroke-dasharray:-;stroke-linecap:round;stroke-linejoin:round;" /><path d="M 172.7999999999999,345.59999999999997 L 172.7999999999999,334.79999999999995 L 172.7999999999999,324.0" style="stroke:black;fill:none;stroke-width:2.0;stroke-dasharray:-;stroke-linecap:round;stroke-linejoin:round;" /><path d="M 172.7999999999999,324.0 L 194.3999999999999,324.0 L 215.99999999999991,324.0" style="stroke:black;fill:none;stroke-width:2.0;stroke-dasharray:-;stroke-linecap:round;stroke-linejoin:round;" /><text x="-21.599999999999994" y="-68.0" dominant-baseline="central" fill="black" font-size="14.0" font-family="sans" text-anchor="end"><tspan x="-21.599999999999994" dy="14.0">5V</tspan></text><text x="30.599999999999994" y="-68.0" dominant-baseline="central" fill="black" font-size="14.0" font-family="sans" text-anchor="end"><tspan x="30.599999999999994" dy="14.0">ESP32 DevKit</tspan></text><text x="73.79999999999998" y="40.0" dominant-baseline="central" fill="black" font-size="14.0" font-family="sans" text-anchor="end"><tspan x="73.79999999999998" dy="14.0">R 220ohm</tspan></text><text x="168.20999999999995" y="148.0" dominant-baseline="central" fill="black" font-size="14.0" font-family="sans" text-anchor="start"><tspan x="168.20999999999995" dy="14.0">LED status</tspan></text><text x="160.1999999999999" y="256.0" dominant-baseline="central" fill="black" font-size="14.0" font-family="sans" text-anchor="end"><tspan x="160.1999999999999" dy="14.0">SENSOR DHT22</tspan></text><circle cx="43.2" cy="-108.0" r="2.6999999999999997" style="stroke:black;fill:black;stroke-width:2.0;stroke-dasharray:-;" /><text x="43.2" y="-128.3" dominant-baseline="ideographic" fill="black" font-size="14.0" font-family="sans" text-anchor="middle"><tspan x="43.2" dy="14.0">esp32</tspan></text><circle cx="215.99999999999991" cy="324.0" r="2.6999999999999997" style="stroke:black;fill:black;stroke-width:2.0;stroke-dasharray:-;" /><text x="215.99999999999991" y="316.3" dominant-baseline="hanging" fill="black" font-size="14.0" font-family="sans" text-anchor="middle"><tspan x="215.99999999999991" dy="14.0">Nets: 3</tspan></text></svg>