<?xml version="1.0" encoding="UTF-8"?>
<svg xmlns="http://www.w3.org/2000/svg" width="1180" height="1258" viewBox="0 0 1180 1258">
  <defs>
    <marker id="arrow" markerWidth="12" markerHeight="8" refX="10" refY="4" orient="auto" markerUnits="strokeWidth">
      <path d="M0,0 L12,4 L0,8 z" fill="#1f2937"/>
    </marker>
  </defs>
  <rect x="0" y="0" width="100%" height="100%" fill="#f8fafc"/>
  <rect x="70" y="28" rx="10" ry="10" width="360" height="54" fill="#ffffff" stroke="#0f172a" stroke-width="1.2"/>
  <text x="250" y="51" font-family="Arial, sans-serif" font-size="13" fill="#0f172a" text-anchor="middle">Start: Diagnostico Grafico</text>
  <line x1="250" y1="82" x2="250" y2="110" stroke="#1f2937" stroke-width="1.3" marker-end="url(#arrow)"/>
  <rect x="70" y="110" rx="10" ry="10" width="360" height="54" fill="#ffffff" stroke="#0f172a" stroke-width="1.2"/>
  <text x="250" y="133" font-family="Arial, sans-serif" font-size="13" fill="#0f172a" text-anchor="middle">Scan project structure</text>
  <line x1="250" y1="164" x2="250" y2="192" stroke="#1f2937" stroke-width="1.3" marker-end="url(#arrow)"/>
  <rect x="70" y="192" rx="10" ry="10" width="360" height="54" fill="#ffffff" stroke="#0f172a" stroke-width="1.2"/>
  <text x="250" y="215" font-family="Arial, sans-serif" font-size="13" fill="#0f172a" text-anchor="middle">File: main.py</text>
  <line x1="250" y1="246" x2="250" y2="274" stroke="#1f2937" stroke-width="1.3" marker-end="url(#arrow)"/>
  <rect x="70" y="274" rx="10" ry="10" width="360" height="54" fill="#ffffff" stroke="#0f172a" stroke-width="1.2"/>
  <text x="250" y="297" font-family="Arial, sans-serif" font-size="13" fill="#0f172a" text-anchor="middle">File: tests/test_ai_agent.py</text>
  <line x1="250" y1="328" x2="250" y2="356" stroke="#1f2937" stroke-width="1.3" marker-end="url(#arrow)"/>
  <rect x="70" y="356" rx="10" ry="10" width="360" height="54" fill="#ffffff" stroke="#0f172a" stroke-width="1.2"/>
  <text x="250" y="374" font-family="Arial, sans-serif" font-size="13" fill="#0f172a" text-anchor="middle">File:</text>
  <text x="250" y="390" font-family="Arial, sans-serif" font-size="13" fill="#0f172a" text-anchor="middle">tests/test_arduino_manager.py</text>
  <line x1="250" y1="410" x2="250" y2="438" stroke="#1f2937" stroke-width="1.3" marker-end="url(#arrow)"/>
  <rect x="70" y="438" rx="10" ry="10" width="360" height="54" fill="#ffffff" stroke="#0f172a" stroke-width="1.2"/>
  <text x="250" y="456" font-family="Arial, sans-serif" font-size="13" fill="#0f172a" text-anchor="middle">File:</text>
  <text x="250" y="472" font-family="Arial, sans-serif" font-size="13" fill="#0f172a" text-anchor="middle">tests/test_environment_memory.py</text>
  <line x1="250" y1="492" x2="250" y2="520" stroke="#1f2937" stroke-width="1.3" marker-end="url(#arrow)"/>
  <rect x="70" y="520" rx="10" ry="10" width="360" height="54" fill="#ffffff" stroke="#0f172a" stroke-width="1.2"/>
  <text x="250" y="538" font-family="Arial, sans-serif" font-size="13" fill="#0f172a" text-anchor="middle">File:</text>
  <text x="250" y="554" font-family="Arial, sans-serif" font-size="13" fill="#0f172a" text-anchor="middle">tests/test_flowchart_manager.py</text>
  <line x1="250" y1="574" x2="250" y2="602" stroke="#1f2937" stroke-width="1.3" marker-end="url(#arrow)"/>
  <rect x="70" y="602" rx="10" ry="10" width="360" height="54" fill="#ffffff" stroke="#0f172a" stroke-width="1.2"/>
  <text x="250" y="625" font-family="Arial, sans-serif" font-size="13" fill="#0f172a" text-anchor="middle">File: tests/test_i18n.py</text>
  <line x1="250" y1="656" x2="250" y2="684" stroke="#1f2937" stroke-width="1.3" marker-end="url(#arrow)"/>
  <rect x="70" y="684" rx="10" ry="10" width="360" height="54" fill="#ffffff" stroke="#0f172a" stroke-width="1.2"/>
  <text x="250" y="707" font-family="Arial, sans-serif" font-size="13" fill="#0f172a" text-anchor="middle">File: tests/test_session_logger.py</text>
  <line x1="250" y1="738" x2="250" y2="766" stroke="#1f2937" stroke-width="1.3" marker-end="url(#arrow)"/>
  <rect x="70" y="766" rx="10" ry="10" width="360" height="54" fill="#ffffff" stroke="#0f172a" stroke-width="1.2"/>
  <text x="250" y="789" font-family="Arial, sans-serif" font-size="13" fill="#0f172a" text-anchor="middle">File: app/__init__.py</text>
  <line x1="250" y1="820" x2="250" y2="848" stroke="#1f2937" stroke-width="1.3" marker-end="url(#arrow)"/>
  <rect x="70" y="848" rx="10" ry="10" width="360" height="54" fill="#ffffff" stroke="#0f172a" stroke-width="1.2"/>
  <text x="250" y="871" font-family="Arial, sans-serif" font-size="13" fill="#0f172a" text-anchor="middle">File: app/ai_agent.py</text>
  <line x1="250" y1="902" x2="250" y2="930" stroke="#1f2937" stroke-width="1.3" marker-end="url(#arrow)"/>
  <rect x="70" y="930" rx="10" ry="10" width="360" height="54" fill="#ffffff" stroke="#0f172a" stroke-width="1.2"/>
  <text x="250" y="953" font-family="Arial, sans-serif" font-size="13" fill="#0f172a" text-anchor="middle">File: app/arduino_manager.py</text>
  <line x1="250" y1="984" x2="250" y2="1012" stroke="#1f2937" stroke-width="1.3" marker-end="url(#arrow)"/>
  <rect x="70" y="1012" rx="10" ry="10" width="360" height="54" fill="#ffffff" stroke="#0f172a" stroke-width="1.2"/>
  <text x="250" y="1035" font-family="Arial, sans-serif" font-size="13" fill="#0f172a" text-anchor="middle">File: app/chat_panel.py</text>
  <line x1="250" y1="1066" x2="250" y2="1094" stroke="#1f2937" stroke-width="1.3" marker-end="url(#arrow)"/>
  <rect x="70" y="1094" rx="10" ry="10" width="360" height="54" fill="#ffffff" stroke="#0f172a" stroke-width="1.2"/>
  <text x="250" y="1117" font-family="Arial, sans-serif" font-size="13" fill="#0f172a" text-anchor="middle">File: app/clippy_widget.py</text>
  <line x1="250" y1="1148" x2="250" y2="1176" stroke="#1f2937" stroke-width="1.3" marker-end="url(#arrow)"/>
  <rect x="70" y="1176" rx="10" ry="10" width="360" height="54" fill="#ffffff" stroke="#0f172a" stroke-width="1.2"/>
  <text x="250" y="1199" font-family="Arial, sans-serif" font-size="13" fill="#0f172a" text-anchor="middle">Flow generated by Willy</text>
  <line x1="430" y1="219" x2="520" y2="212" stroke="#334155" stroke-width="1.2" marker-end="url(#arrow)"/>
  <rect x="520" y="192" rx="8" ry="8" width="290" height="40" fill="#eef2ff" stroke="#334155" stroke-width="1.1"/>
  <text x="665" y="214" font-family="Arial, sans-serif" font-size="12" fill="#0f172a" text-anchor="middle">Function: main</text>
  <line x1="430" y1="301" x2="520" y2="294" stroke="#334155" stroke-width="1.2" marker-end="url(#arrow)"/>
  <rect x="520" y="274" rx="8" ry="8" width="290" height="40" fill="#eef2ff" stroke="#334155" stroke-width="1.1"/>
  <text x="665" y="296" font-family="Arial, sans-serif" font-size="12" fill="#0f172a" text-anchor="middle">Function: __init__</text>
  <line x1="430" y1="301" x2="520" y2="346" stroke="#334155" stroke-width="1.2" marker-end="url(#arrow)"/>
  <rect x="520" y="326" rx="8" ry="8" width="290" height="40" fill="#eef2ff" stroke="#334155" stroke-width="1.1"/>
  <text x="665" y="348" font-family="Arial, sans-serif" font-size="12" fill="#0f172a" text-anchor="middle">Function: get_cwd</text>
  <line x1="430" y1="383" x2="520" y2="376" stroke="#334155" stroke-width="1.2" marker-end="url(#arrow)"/>
  <rect x="520" y="356" rx="8" ry="8" width="290" height="40" fill="#eef2ff" stroke="#334155" stroke-width="1.1"/>
  <text x="665" y="378" font-family="Arial, sans-serif" font-size="12" fill="#0f172a" text-anchor="middle">Function: _mgr</text>
  <line x1="430" y1="383" x2="520" y2="428" stroke="#334155" stroke-width="1.2" marker-end="url(#arrow)"/>
  <rect x="520" y="408" rx="8" ry="8" width="290" height="40" fill="#eef2ff" stroke="#334155" stroke-width="1.1"/>
  <text x="665" y="425" font-family="Arial, sans-serif" font-size="12" fill="#0f172a" text-anchor="middle">Function:</text>
  <text x="665" y="440" font-family="Arial, sans-serif" font-size="12" fill="#0f172a" text-anchor="middle">test_parse_platformio_multi...</text>
  <line x1="430" y1="465" x2="520" y2="458" stroke="#334155" stroke-width="1.2" marker-end="url(#arrow)"/>
  <rect x="520" y="438" rx="8" ry="8" width="290" height="40" fill="#eef2ff" stroke="#334155" stroke-width="1.1"/>
  <text x="665" y="455" font-family="Arial, sans-serif" font-size="12" fill="#0f172a" text-anchor="middle">Function:</text>
  <text x="665" y="470" font-family="Arial, sans-serif" font-size="12" fill="#0f172a" text-anchor="middle">test_refresh_creates_snapsh...</text>
  <line x1="430" y1="465" x2="520" y2="510" stroke="#334155" stroke-width="1.2" marker-end="url(#arrow)"/>
  <rect x="520" y="490" rx="8" ry="8" width="290" height="40" fill="#eef2ff" stroke="#334155" stroke-width="1.1"/>
  <text x="665" y="507" font-family="Arial, sans-serif" font-size="12" fill="#0f172a" text-anchor="middle">Function:</text>
  <text x="665" y="522" font-family="Arial, sans-serif" font-size="12" fill="#0f172a" text-anchor="middle">test_summary_for_prompt_con...</text>
  <line x1="430" y1="547" x2="520" y2="540" stroke="#334155" stroke-width="1.2" marker-end="url(#arrow)"/>
  <rect x="520" y="520" rx="8" ry="8" width="290" height="40" fill="#eef2ff" stroke="#334155" stroke-width="1.1"/>
  <text x="665" y="537" font-family="Arial, sans-serif" font-size="12" fill="#0f172a" text-anchor="middle">Function:</text>
  <text x="665" y="552" font-family="Arial, sans-serif" font-size="12" fill="#0f172a" text-anchor="middle">test_generate_flowchart_cre...</text>
  <line x1="430" y1="547" x2="520" y2="592" stroke="#334155" stroke-width="1.2" marker-end="url(#arrow)"/>
  <rect x="520" y="572" rx="8" ry="8" width="290" height="40" fill="#eef2ff" stroke="#334155" stroke-width="1.1"/>
  <text x="665" y="589" font-family="Arial, sans-serif" font-size="12" fill="#0f172a" text-anchor="middle">Function:</text>
  <text x="665" y="604" font-family="Arial, sans-serif" font-size="12" fill="#0f172a" text-anchor="middle">test_generate_flowchart_inv...</text>
  <line x1="430" y1="629" x2="520" y2="622" stroke="#334155" stroke-width="1.2" marker-end="url(#arrow)"/>
  <rect x="520" y="602" rx="8" ry="8" width="290" height="40" fill="#eef2ff" stroke="#334155" stroke-width="1.1"/>
  <text x="665" y="619" font-family="Arial, sans-serif" font-size="12" fill="#0f172a" text-anchor="middle">Function:</text>
  <text x="665" y="634" font-family="Arial, sans-serif" font-size="12" fill="#0f172a" text-anchor="middle">test_set_language_ignores_u...</text>
  <line x1="430" y1="629" x2="520" y2="674" stroke="#334155" stroke-width="1.2" marker-end="url(#arrow)"/>
  <rect x="520" y="654" rx="8" ry="8" width="290" height="40" fill="#eef2ff" stroke="#334155" stroke-width="1.1"/>
  <text x="665" y="671" font-family="Arial, sans-serif" font-size="12" fill="#0f172a" text-anchor="middle">Function:</text>
  <text x="665" y="686" font-family="Arial, sans-serif" font-size="12" fill="#0f172a" text-anchor="middle">test_get_returns_key_when_m...</text>
  <line x1="430" y1="711" x2="520" y2="704" stroke="#334155" stroke-width="1.2" marker-end="url(#arrow)"/>
  <rect x="520" y="684" rx="8" ry="8" width="290" height="40" fill="#eef2ff" stroke="#334155" stroke-width="1.1"/>
  <text x="665" y="701" font-family="Arial, sans-serif" font-size="12" fill="#0f172a" text-anchor="middle">Function:</text>
  <text x="665" y="716" font-family="Arial, sans-serif" font-size="12" fill="#0f172a" text-anchor="middle">test_session_logger_writes_...</text>
  <line x1="430" y1="711" x2="520" y2="756" stroke="#334155" stroke-width="1.2" marker-end="url(#arrow)"/>
  <rect x="520" y="736" rx="8" ry="8" width="290" height="40" fill="#eef2ff" stroke="#334155" stroke-width="1.1"/>
  <text x="665" y="753" font-family="Arial, sans-serif" font-size="12" fill="#0f172a" text-anchor="middle">Function:</text>
  <text x="665" y="768" font-family="Arial, sans-serif" font-size="12" fill="#0f172a" text-anchor="middle">test_session_logger_redacts...</text>
  <line x1="430" y1="957" x2="520" y2="950" stroke="#334155" stroke-width="1.2" marker-end="url(#arrow)"/>
  <rect x="520" y="930" rx="8" ry="8" width="290" height="40" fill="#eef2ff" stroke="#334155" stroke-width="1.1"/>
  <text x="665" y="952" font-family="Arial, sans-serif" font-size="12" fill="#0f172a" text-anchor="middle">Function: __init__</text>
  <line x1="430" y1="957" x2="520" y2="1002" stroke="#334155" stroke-width="1.2" marker-end="url(#arrow)"/>
  <rect x="520" y="982" rx="8" ry="8" width="290" height="40" fill="#eef2ff" stroke="#334155" stroke-width="1.1"/>
  <text x="665" y="1004" font-family="Arial, sans-serif" font-size="12" fill="#0f172a" text-anchor="middle">Function: _detect_platformio</text>
</svg>
